<svg width="16" height="15" viewBox="0 0 16 15" fill="none" xmlns="http://www.w3.org/2000/svg">
<path d="M8.00169 3.83033C5.85101 3.83033 4.11626 5.45702 4.11626 7.47373C4.11626 9.49044 5.85101 11.1171 8.00169 11.1171C10.1524 11.1171 11.8871 9.49044 11.8871 7.47373C11.8871 5.45702 10.1524 3.83033 8.00169 3.83033ZM8.00169 9.84242C6.61186 9.84242 5.47565 8.78016 5.47565 7.47373C5.47565 6.16731 6.60848 5.10505 8.00169 5.10505C9.3949 5.10505 10.5277 6.16731 10.5277 7.47373C10.5277 8.78016 9.39151 9.84242 8.00169 9.84242ZM12.9523 3.6813C12.9523 4.15377 12.5465 4.53111 12.046 4.53111C11.5422 4.53111 11.1398 4.1506 11.1398 3.6813C11.1398 3.212 11.5456 2.83149 12.046 2.83149C12.5465 2.83149 12.9523 3.212 12.9523 3.6813ZM15.5257 4.54379C15.4682 3.40543 15.1909 2.39707 14.3016 1.56629C13.4156 0.735504 12.3402 0.475488 11.1263 0.418411C9.87508 0.351822 6.12492 0.351822 4.87374 0.418411C3.66313 0.472317 2.58779 0.732333 1.69844 1.56312C0.809086 2.3939 0.535179 3.40226 0.474311 4.54062C0.403298 5.71387 0.403298 9.23043 0.474311 10.4037C0.531797 11.542 0.809086 12.5504 1.69844 13.3812C2.58779 14.212 3.65975 14.472 4.87374 14.5291C6.12492 14.5956 9.87508 14.5956 11.1263 14.5291C12.3402 14.4751 13.4156 14.2151 14.3016 13.3812C15.1875 12.5504 15.4648 11.542 15.5257 10.4037C15.5967 9.23043 15.5967 5.71704 15.5257 4.54379ZM13.9093 11.6625C13.6455 12.284 13.1349 12.7628 12.4687 13.0133C11.4712 13.3843 9.10408 13.2987 8.00169 13.2987C6.8993 13.2987 4.52881 13.3812 3.53463 13.0133C2.87184 12.766 2.36123 12.2872 2.09408 11.6625C1.69844 10.7271 1.78974 8.50745 1.78974 7.47373C1.78974 6.44001 1.70182 4.21719 2.09408 3.28493C2.35785 2.66343 2.86846 2.18462 3.53463 1.93412C4.5322 1.56312 6.8993 1.64873 8.00169 1.64873C9.10408 1.64873 11.4746 1.56629 12.4687 1.93412C13.1315 2.18145 13.6421 2.66026 13.9093 3.28493C14.3049 4.22036 14.2136 6.44001 14.2136 7.47373C14.2136 8.50745 14.3049 10.7303 13.9093 11.6625Z" fill="white"/>
</svg>
