<svg width="16" height="24" viewBox="0 0 16 24" fill="none" xmlns="http://www.w3.org/2000/svg">
<path d="M8.02141 0C4.3923 0 2.04172 1.53295 0.19627 4.26684C-0.138502 4.76278 -0.0352925 5.44275 0.431696 5.80781L2.39304 7.34105C2.86467 7.70972 3.53571 7.62352 3.90494 7.14661C5.04384 5.67562 5.88866 4.82869 7.66763 4.82869C9.06637 4.82869 10.7965 5.75677 10.7965 7.15514C10.7965 8.21227 9.95002 8.75517 8.56892 9.55345C6.95835 10.4844 4.82705 11.643 4.82705 14.5412V15C4.82705 15.6213 5.31559 16.125 5.91826 16.125H9.21327C9.81594 16.125 10.3045 15.6213 10.3045 15V14.7294C10.3045 12.7203 16 12.6367 16 7.2C16 3.10575 11.8807 0 8.02141 0ZM7.56579 17.5059C5.82914 17.5059 4.41626 18.9625 4.41626 20.753C4.41626 22.5434 5.82914 24 7.56579 24C9.30243 24 10.7153 22.5434 10.7153 20.7529C10.7153 18.9625 9.30243 17.5059 7.56579 17.5059Z" fill="#0998FF"/>
</svg>
