<svg width="15" height="15" viewBox="0 0 15 15" fill="none" xmlns="http://www.w3.org/2000/svg">
<path fill-rule="evenodd" clip-rule="evenodd" d="M7.48377 11.775L3.40878 14.2637C3.30718 14.3254 3.18954 14.3556 3.07079 14.3503C2.95204 14.345 2.83752 14.3046 2.74177 14.2342C2.64602 14.1638 2.57336 14.0665 2.53299 13.9547C2.49262 13.8429 2.48637 13.7216 2.51503 13.6062L3.69628 8.90123L0.270026 6.23498C0.174384 6.16098 0.103332 6.05982 0.0661843 5.94474C0.0290363 5.82967 0.0275258 5.70605 0.061851 5.5901C0.0961761 5.47415 0.164735 5.37128 0.25854 5.29497C0.352344 5.21867 0.467017 5.17248 0.587526 5.16248L5.07002 4.79373L6.94002 0.434977C6.98629 0.32687 7.0633 0.234741 7.16149 0.170038C7.25968 0.105336 7.37472 0.0709121 7.49231 0.0710453C7.6099 0.0711785 7.72486 0.105862 7.82291 0.170787C7.92095 0.235712 7.99775 0.328015 8.04377 0.436227L9.89752 4.79373L14.41 5.16373C14.5303 5.17378 14.6448 5.21989 14.7385 5.29604C14.8322 5.37218 14.9007 5.47482 14.9351 5.59053C14.9696 5.70624 14.9683 5.82964 14.9315 5.94462C14.8947 6.05959 14.824 6.16079 14.7288 6.23498L11.2888 8.90123L12.4675 13.6087C12.4965 13.7242 12.4905 13.8456 12.4503 13.9577C12.41 14.0697 12.3374 14.1672 12.2416 14.2379C12.1458 14.3085 12.0311 14.349 11.9122 14.3543C11.7933 14.3596 11.6755 14.3293 11.5738 14.2675L7.48377 11.7737V11.775Z" fill="#FFCC00"/>
</svg>
