<svg width="19" height="21" viewBox="0 0 19 21" fill="none" xmlns="http://www.w3.org/2000/svg">
<path d="M18.4582 14.8393L14.3018 12.8706C14.1243 12.7869 13.9269 12.7693 13.7395 12.8203C13.5521 12.8714 13.3848 12.9883 13.2628 13.1536L11.4221 15.6392C8.53335 14.1338 6.20858 11.5643 4.84657 8.37148L7.09544 6.33706C7.24524 6.2024 7.35127 6.01745 7.39747 5.81023C7.44368 5.60301 7.42754 5.38479 7.3515 5.18861L5.57021 0.594775C5.48676 0.383299 5.33916 0.210635 5.15286 0.106557C4.96656 0.0024795 4.75324 -0.0264886 4.54969 0.0246481L0.690246 1.00904C0.493997 1.05913 0.318903 1.18126 0.193542 1.3555C0.0681805 1.52974 -4.52078e-05 1.7458 2.24746e-08 1.96841C2.24746e-08 12.4891 7.71517 21 17.219 21C17.4205 21.0001 17.6161 20.9248 17.7738 20.7862C17.9315 20.6476 18.0421 20.4541 18.0874 20.2371L18.9781 15.9714C19.024 15.7453 18.9973 15.5086 18.9024 15.302C18.8075 15.0954 18.6504 14.9318 18.4582 14.8393Z" fill="white"/>
</svg>
