<svg width="17" height="17" viewBox="0 0 17 17" fill="none" xmlns="http://www.w3.org/2000/svg">
<path d="M14.39 1.98933C13.9921 1.62135 12.382 0.448202 8.79215 0.432476C8.79215 0.432476 4.56012 0.177718 2.49892 2.0774C1.35242 3.22853 0.948323 4.91748 0.904468 7.00901C0.860612 9.10055 0.80736 13.0194 4.56952 14.0825H4.57265L4.56952 15.7054C4.56952 15.7054 4.54446 16.3627 4.97674 16.4948C5.49674 16.6584 5.80373 16.1583 6.3018 15.6205C6.57433 15.3248 6.95023 14.8908 7.23529 14.5606C9.81022 14.7776 11.7868 14.2806 12.0124 14.2083C12.5324 14.0385 15.4738 13.661 15.95 9.74216C16.4449 5.69748 15.7119 3.14361 14.39 1.98933ZM14.8254 9.44652C14.4213 12.7175 12.0374 12.9251 11.5989 13.0666C11.4109 13.1264 9.67239 13.5604 7.48902 13.4189C7.48902 13.4189 5.86011 15.3909 5.35264 15.9035C5.18662 16.0702 5.00494 16.0545 5.00807 15.7243C5.00807 15.5072 5.0206 13.0289 5.0206 13.0289C5.01747 13.0289 5.01747 13.0289 5.0206 13.0289C1.83169 12.1419 2.01964 8.8049 2.0541 7.05934C2.08856 5.31377 2.41747 3.88272 3.38856 2.9203C5.13337 1.33199 8.72637 1.56788 8.72637 1.56788C11.7618 1.58046 13.2153 2.49885 13.5536 2.80707C14.6719 3.7695 15.242 6.07175 14.8254 9.44652ZM10.4712 6.90522C10.4837 7.17571 10.0796 7.19458 10.0671 6.92409C10.0326 6.23216 9.70998 5.89563 9.04589 5.85788C8.77649 5.84216 8.80155 5.43643 9.06781 5.45216C9.94179 5.49934 10.4273 6.00256 10.4712 6.90522ZM11.1071 7.26063C11.1384 5.92708 10.3083 4.88288 8.73263 4.76651C8.46637 4.74764 8.49456 4.34191 8.76083 4.36079C10.5777 4.49288 11.5456 5.7478 11.5112 7.27006C11.508 7.54055 11.1008 7.52797 11.1071 7.26063ZM12.5794 7.68208C12.5825 7.95256 12.1753 7.95571 12.1753 7.68522C12.1565 5.12192 10.4555 3.72546 8.39119 3.70974C8.12492 3.70659 8.12492 3.30401 8.39119 3.30401C10.6999 3.31974 12.5574 4.92062 12.5794 7.68208ZM12.2254 10.7675V10.7738C11.8871 11.3714 11.2543 12.0318 10.6027 11.8211L10.5965 11.8117C9.93552 11.6261 8.37866 10.821 7.39505 10.0347C6.88758 9.63208 6.42397 9.15716 6.06686 8.70111C5.74421 8.29539 5.41843 7.81418 5.10204 7.23547C4.43482 6.02458 4.28759 5.48361 4.28759 5.48361C4.07771 4.82942 4.73241 4.19409 5.33072 3.85441H5.33698C5.62517 3.70345 5.90084 3.75377 6.08565 3.97708C6.08565 3.97708 6.47409 4.44256 6.64011 4.67216C6.79674 4.88603 7.00662 5.22885 7.11625 5.42071C7.30734 5.76353 7.1883 6.11264 7.00035 6.25732L6.62445 6.55926C6.43336 6.71337 6.45843 6.99958 6.45843 6.99958C6.45843 6.99958 7.01601 9.11627 9.09914 9.65095C9.09914 9.65095 9.3842 9.67611 9.53769 9.48426L9.83841 9.10684C9.98251 8.91813 10.3302 8.79861 10.6717 8.99047C11.1321 9.25152 11.7179 9.65724 12.1064 10.0252C12.3256 10.2045 12.3758 10.4781 12.2254 10.7675Z" fill="white"/>
</svg>
