<svg width="17" height="11" viewBox="0 0 17 11" fill="none" xmlns="http://www.w3.org/2000/svg">
<path d="M16.6329 0.991276C16.7436 0.571868 16.6329 0.263184 16.1008 0.263184H14.3398C13.8913 0.263184 13.685 0.528249 13.5744 0.823512C13.5744 0.823512 12.6775 3.27621 11.4098 4.8666C11.0002 5.32627 10.8118 5.47391 10.5876 5.47391C10.477 5.47391 10.3066 5.32628 10.3066 4.90687V0.991276C10.3066 0.487986 10.181 0.263184 9.81026 0.263184H7.04172C6.76068 0.263184 6.59325 0.498052 6.59325 0.716144C6.59325 1.19259 7.22709 1.30332 7.29286 2.64542V5.55779C7.29286 6.19529 7.19121 6.31272 6.96698 6.31272C6.36902 6.31272 4.91599 3.84996 4.05493 1.03154C3.88152 0.484631 3.7111 0.263184 3.25965 0.263184H1.49867C0.996382 0.263184 0.89473 0.528249 0.89473 0.823512C0.89473 1.34693 1.49269 3.94726 3.67822 7.38305C5.13424 9.72838 7.18523 11 9.05085 11C10.172 11 10.3096 10.7182 10.3096 10.2317C10.3096 7.99035 10.2079 7.77897 10.77 7.77897C11.0301 7.77897 11.4786 7.9266 12.525 9.05733C13.7209 10.3994 13.9182 11 14.5879 11H16.3489C16.8512 11 17.1053 10.7182 16.9588 10.1612C16.624 8.99022 14.3607 6.58114 14.2591 6.42009C13.9989 6.0443 14.0737 5.87654 14.2591 5.54101C14.262 5.53766 16.4117 2.14213 16.6329 0.991276Z" fill="white"/>
</svg>
