<svg width="17" height="16" viewBox="0 0 17 16" fill="none" xmlns="http://www.w3.org/2000/svg">
<path d="M14.0615 2.62371C12.5552 1.20266 10.5493 0.421082 8.41747 0.421082C4.01729 0.421082 0.436742 3.79101 0.436742 7.93236C0.436742 9.25529 0.803425 10.5478 1.50084 11.688L0.368439 15.579L4.59967 14.5335C5.76442 15.1324 7.07657 15.447 8.41388 15.447H8.41747C12.8141 15.447 16.4737 12.0771 16.4737 7.93574C16.4737 5.92935 15.5678 4.04477 14.0615 2.62371ZM8.41747 14.1816C7.22396 14.1816 6.05561 13.8805 5.03825 13.3121L4.79739 13.1767L2.28813 13.7959L2.95678 11.4918L2.79861 11.2549C2.13355 10.2602 1.78484 9.11319 1.78484 7.93236C1.78484 4.49138 4.76144 1.68988 8.42107 1.68988C10.1934 1.68988 11.8578 2.3395 13.1089 3.52033C14.3599 4.70116 15.1292 6.2677 15.1256 7.93574C15.1256 11.3801 12.0735 14.1816 8.41747 14.1816ZM12.0555 9.50567C11.8578 9.41093 10.8764 8.95755 10.6931 8.89665C10.5097 8.83236 10.3767 8.80191 10.2437 8.99138C10.1107 9.18086 9.72962 9.6004 9.61099 9.72898C9.49595 9.85417 9.37732 9.87108 9.1796 9.77634C8.00765 9.22484 7.23834 8.79176 6.46543 7.54326C6.26052 7.21168 6.67034 7.23537 7.0514 6.51807C7.11611 6.39289 7.08376 6.28462 7.03343 6.18988C6.9831 6.09514 6.58406 5.17146 6.4187 4.79589C6.25693 4.43048 6.09156 4.48123 5.96933 4.47446C5.85429 4.4677 5.72128 4.4677 5.58827 4.4677C5.45526 4.4677 5.23956 4.51507 5.05622 4.70116C4.87288 4.89063 4.35881 5.34401 4.35881 6.2677C4.35881 7.19138 5.0742 8.08462 5.17126 8.2098C5.27192 8.33499 6.57687 10.2297 8.57925 11.0451C9.84466 11.5594 10.3408 11.6034 10.9735 11.5154C11.3581 11.4613 12.1526 11.0621 12.318 10.6222C12.4833 10.1824 12.4833 9.8068 12.433 9.72898C12.3863 9.64439 12.2533 9.59702 12.0555 9.50567Z" fill="white"/>
</svg>
